<svg width="201" height="20" viewBox="0 0 201 20" fill="none" xmlns="http://www.w3.org/2000/svg">
<path d="M110.434 8.8252C111.409 8.82528 112.263 9.05713 112.995 9.52148C113.732 9.98595 114.304 10.6388 114.712 11.4785C115.125 12.3182 115.331 13.301 115.331 14.4268C115.331 15.5433 115.125 16.5194 114.712 17.3545C114.304 18.1895 113.732 18.8393 112.995 19.3037C112.263 19.7681 111.409 20.0009 110.434 20.001C109.458 20.001 108.601 19.7681 107.864 19.3037C107.133 18.8393 106.56 18.1894 106.147 17.3545C105.739 16.5194 105.535 15.5433 105.535 14.4268C105.535 13.3009 105.739 12.3182 106.147 11.4785C106.56 10.6387 107.132 9.98596 107.864 9.52148C108.601 9.05706 109.458 8.8252 110.434 8.8252ZM137.473 8.8252C138.036 8.82522 138.592 8.91882 139.141 9.10645C139.689 9.29411 140.189 9.59932 140.64 10.0215C141.09 10.439 141.449 10.993 141.717 11.6826C141.984 12.3722 142.117 13.222 142.117 14.2305V14.9336H134.269C134.292 15.6528 134.43 16.2704 134.686 16.7852C134.972 17.3478 135.369 17.7768 135.875 18.0723C136.382 18.3631 136.971 18.5088 137.642 18.5088C138.078 18.5088 138.472 18.4481 138.824 18.3262C139.181 18.1995 139.488 18.0113 139.746 17.7627C140.004 17.5095 140.203 17.1953 140.344 16.8203L141.948 17.2705C141.779 17.8146 141.495 18.2933 141.097 18.7061C140.698 19.1141 140.205 19.4333 139.619 19.6631C139.033 19.8882 138.373 20.001 137.642 20.001C136.6 20.001 135.702 19.7711 134.946 19.3115C134.196 18.8471 133.616 18.1993 133.208 17.3691C132.805 16.534 132.603 15.5623 132.603 14.4551C132.603 13.3479 132.805 12.3718 133.208 11.5273C133.616 10.6783 134.184 10.0168 134.911 9.54297C135.643 9.06452 136.497 8.8252 137.473 8.8252ZM156.654 8.96875H158.963V10.376H156.654V16.6816C156.654 17.1507 156.722 17.5028 156.858 17.7373C156.999 17.967 157.178 18.1224 157.394 18.2021C157.614 18.2771 157.846 18.3144 158.09 18.3145C158.273 18.3144 158.423 18.3049 158.54 18.2861C158.657 18.2627 158.752 18.2436 158.822 18.2295L159.159 19.7217C159.047 19.7638 158.89 19.8065 158.688 19.8486C158.487 19.8955 158.23 19.9189 157.921 19.9189C157.452 19.9189 156.992 19.8178 156.542 19.6162C156.096 19.4145 155.725 19.1071 155.43 18.6943C155.139 18.2815 154.993 17.7605 154.993 17.1318V10.376H153.36V8.96875H154.993V6.37891H156.654V8.96875ZM162.132 15.7227C162.132 16.5106 162.352 17.1393 162.793 17.6084C163.239 18.0774 163.807 18.3124 164.496 18.3125C164.909 18.3125 165.329 18.2071 165.756 17.9961C166.187 17.785 166.549 17.4607 166.84 17.0244C167.135 16.5881 167.283 16.0319 167.283 15.3564V8.9668H168.944V19.7764H167.283V17.9463H167.171C166.918 18.4951 166.523 18.962 165.988 19.3467C165.454 19.7266 164.778 19.9169 163.962 19.917C163.286 19.917 162.686 19.7691 162.16 19.4736C161.635 19.1734 161.221 18.7234 160.921 18.123C160.621 17.5178 160.471 16.7545 160.471 15.835V8.9668H162.132V15.7227ZM96.6104 17.3271H96.7793L101.678 5.36328H103.761V19.7764H102.128V8.82617H101.987L97.4834 19.7764H95.9062L91.4023 8.82617H91.2617V19.7764H89.6289V5.36328H91.7119L96.6104 17.3271ZM127.77 8.8252C128.736 8.82528 129.526 9.12827 130.141 9.7334C130.755 10.3339 131.062 11.2697 131.062 12.541V19.7754H129.402V12.541C129.402 11.7435 129.183 11.1736 128.747 10.8311C128.311 10.4887 127.797 10.3174 127.206 10.3174C126.446 10.3174 125.857 10.5471 125.439 11.0068C125.022 11.4619 124.813 12.0393 124.813 12.7383V19.7754H123.124V12.3721C123.124 11.7576 122.925 11.262 122.526 10.8867C122.128 10.5069 121.614 10.3175 120.985 10.3174C120.554 10.3174 120.15 10.4323 119.774 10.6621C119.404 10.892 119.104 11.2111 118.874 11.6191C118.649 12.0226 118.536 12.4894 118.536 13.0195V19.7754H116.875V8.96582H118.479V10.6553H118.62C118.845 10.0782 119.209 9.62958 119.711 9.31055C120.213 8.9869 120.816 8.82524 121.52 8.8252C122.233 8.82523 122.827 8.98685 123.301 9.31055C123.779 9.62957 124.152 10.0783 124.419 10.6553H124.532C124.809 10.0971 125.224 9.65359 125.777 9.3252C126.331 8.99212 126.995 8.8252 127.77 8.8252ZM148.556 8.8252C149.287 8.82525 149.928 8.97526 150.477 9.27539C151.025 9.57097 151.453 10.0218 151.758 10.627C152.063 11.2274 152.215 11.9878 152.215 12.9072V19.7754H150.554V13.0195C150.554 12.1705 150.333 11.509 149.893 11.0352C149.452 10.5567 148.846 10.3175 148.077 10.3174C147.547 10.3174 147.073 10.4323 146.655 10.6621C146.242 10.892 145.916 11.2271 145.677 11.668C145.438 12.1089 145.318 12.644 145.318 13.2725V19.7754H143.657V8.96582H145.262V10.6553H145.402C145.656 10.1064 146.041 9.66513 146.557 9.33203C147.073 8.99427 147.739 8.8252 148.556 8.8252ZM181.884 8.8252C182.85 8.82529 183.64 9.12827 184.255 9.7334C184.869 10.3339 185.177 11.2697 185.177 12.541V19.7754H183.517V12.541C183.517 11.7435 183.298 11.1736 182.861 10.8311C182.425 10.4887 181.911 10.3174 181.32 10.3174C180.56 10.3174 179.971 10.5471 179.554 11.0068C179.136 11.4619 178.928 12.0393 178.928 12.7383V19.7754H177.238V12.3721C177.238 11.7576 177.039 11.262 176.641 10.8867C176.242 10.5069 175.728 10.3175 175.1 10.3174C174.668 10.3174 174.264 10.4323 173.889 10.6621C173.518 10.892 173.218 11.2111 172.988 11.6191C172.763 12.0226 172.65 12.4894 172.65 13.0195V19.7754H170.989V8.96582H172.594V10.6553H172.734C172.96 10.0782 173.323 9.62958 173.825 9.31055C174.327 8.9869 174.93 8.82524 175.634 8.8252C176.347 8.82523 176.941 8.98685 177.415 9.31055C177.893 9.62957 178.266 10.0783 178.533 10.6553H178.646C178.923 10.0971 179.338 9.65359 179.892 9.3252C180.445 8.99212 181.11 8.8252 181.884 8.8252ZM3.4707 11.0146H17.3604V5.79004H62.4785V9.27148L65.9219 5.79004H83.1221V9.27637H65.9219V16.248H83.1221V19.7334H65.9219L62.4785 16.252V19.7334H41.6553V9.27637H32.9746V19.7334H29.5039V9.27637H20.8311V19.7334H17.3604V14.5088H3.4707V19.7334H0V5.79004H3.4707V11.0146ZM110.434 10.3174C109.692 10.3174 109.082 10.5098 108.604 10.8945C108.125 11.2792 107.771 11.7833 107.541 12.4072C107.311 13.0311 107.196 13.7044 107.196 14.4268C107.196 15.1491 107.311 15.8203 107.541 16.4395C107.771 17.0586 108.125 17.5585 108.604 17.9385C109.082 18.3184 109.692 18.5088 110.434 18.5088C111.175 18.5087 111.784 18.3184 112.263 17.9385C112.741 17.5585 113.096 17.0587 113.326 16.4395C113.556 15.8203 113.671 15.149 113.671 14.4268C113.671 13.7045 113.556 13.0311 113.326 12.4072C113.096 11.7833 112.741 11.2792 112.263 10.8945C111.784 10.5099 111.175 10.3175 110.434 10.3174ZM45.126 11.0146H59.0078V14.5088H45.126V16.248H62.4746V9.27637H45.126V11.0146ZM137.473 10.3174C136.811 10.3174 136.239 10.4814 135.756 10.8096C135.277 11.1333 134.908 11.5555 134.65 12.0762C134.429 12.5224 134.304 12.9967 134.272 13.498H140.429C140.429 12.8882 140.306 12.3437 140.062 11.8652C139.823 11.3869 139.481 11.0092 139.035 10.7324C138.594 10.4556 138.073 10.3174 137.473 10.3174Z" fill="white"/>
<g clip-path="url(#clip0_10444_35652)">
<path d="M195.029 0.446534L193.525 0.444818L193.52 4.63129L194.273 6.4375L195.024 4.633L195.029 0.446534Z" fill="#FDFDFD"/>
<path d="M190.552 1.66814L189.487 2.72569L192.457 5.68961L194.273 6.43651L193.522 4.63206L190.552 1.66814Z" fill="#E2E2E2"/>
<path d="M188.252 5.68504L188.25 7.18235L192.455 7.1875L194.27 6.43756L192.457 5.69019L188.252 5.68504Z" fill="#B4B4B4"/>
<path d="M189.482 10.1407L190.545 11.2006L193.522 8.24398L194.272 6.43651L192.459 7.18401L189.482 10.1407Z" fill="#959595"/>
<path d="M193.518 12.4265L195.022 12.4282L195.027 8.24176L194.274 6.43555L193.523 8.24004L193.518 12.4265Z" fill="white"/>
<path d="M197.993 11.203L199.058 10.1454L196.088 7.18148L194.272 6.43459L195.023 8.23903L197.993 11.203Z" fill="white"/>
<path d="M200.287 7.18605L200.289 5.68874L196.084 5.68359L194.27 6.43354L196.082 7.18091L200.287 7.18605Z" fill="white"/>
<path d="M199.063 2.73044L198 1.67047L195.023 4.62711L194.273 6.43459L196.085 5.68708L199.063 2.73044Z" fill="white"/>
</g>
<defs>
<clipPath id="clip0_10444_35652">
<rect width="12.0667" height="12.8709" fill="white" transform="translate(188.238)"/>
</clipPath>
</defs>
</svg>
