<svg width="806" height="562" viewBox="0 0 806 562" fill="none" xmlns="http://www.w3.org/2000/svg">
<path d="M668.427 -72.8711C677.146 -72.8711 685.782 -71.2124 693.84 -67.9883C701.898 -64.7641 709.221 -60.0369 715.392 -54.0762C721.562 -48.1154 726.459 -41.0367 729.801 -33.2441C731.678 -28.8661 733.042 -24.3105 733.878 -19.6631C735.459 -28.4518 738.925 -36.8665 744.1 -44.3477C751.404 -54.9071 761.782 -63.1325 773.917 -67.9883C786.052 -72.8438 799.404 -74.1136 812.284 -71.6387C825.165 -69.1637 837.002 -63.0533 846.295 -54.0762C855.588 -45.0987 861.921 -33.6562 864.487 -21.1943C867.053 -8.73216 865.736 4.185 860.703 15.9219C855.671 27.6582 847.151 37.684 836.227 44.7354C825.58 51.6076 813.113 55.3552 800.329 55.541C800.324 55.5411 800.318 55.54 800.312 55.54C800.313 55.5433 800.313 55.5465 800.313 55.5498V180.032C800.313 180.39 800.215 180.726 800.047 181.017C800.215 181.307 800.313 181.643 800.313 182.001V243.258H863.796C864.879 243.258 865.773 244.139 865.756 245.242C865.557 257.6 861.672 269.645 854.56 279.928C847.256 290.487 836.877 298.713 824.741 303.568C820.263 305.36 815.618 306.662 810.894 307.469C815.631 308.278 820.275 309.584 824.741 311.371C832.799 314.595 840.123 319.322 846.294 325.282C852.464 331.243 857.361 338.322 860.702 346.114C864.044 353.907 865.765 362.26 865.765 370.697C865.765 379.134 864.044 387.488 860.702 395.28C857.361 403.073 852.464 410.152 846.294 416.112C840.123 422.073 832.799 426.8 824.741 430.024C817.234 433.028 809.225 434.673 801.113 434.884L800.328 434.9C799.226 434.916 798.345 434.022 798.345 432.938V308.442C794.343 308.385 790.336 307.98 786.374 307.219C773.493 304.744 761.657 298.634 752.364 289.657C743.071 280.68 736.738 269.237 734.172 256.775C734.067 256.267 733.971 255.758 733.879 255.249C733.045 259.883 731.684 264.438 729.802 268.827C724.769 280.564 716.249 290.59 705.324 297.642C695.01 304.299 682.987 308.024 670.624 308.419L669.427 308.447C668.325 308.463 667.444 307.569 667.443 306.485V245.229H603.961C603.603 245.228 603.266 245.13 602.976 244.961C602.685 245.129 602.349 245.227 601.992 245.227H473.059C473.055 245.227 473.051 245.226 473.047 245.226C472.986 249.087 472.567 252.954 471.779 256.777C469.213 269.239 462.88 280.682 453.587 289.659C444.294 298.636 432.457 304.747 419.576 307.222C415.615 307.983 411.609 308.388 407.607 308.445C407.607 308.448 407.608 308.451 407.608 308.454V369.711H471.099C471.227 361.609 472.941 353.602 476.152 346.112C479.494 338.32 484.391 331.241 490.562 325.28C496.732 319.32 504.056 314.592 512.113 311.368C519.621 308.364 527.63 306.719 535.742 306.509L536.527 306.492C537.629 306.476 538.511 307.371 538.511 308.454V432.937C538.511 432.941 538.51 432.945 538.51 432.949C546.894 433.069 555.184 434.721 562.938 437.824C570.996 441.048 578.32 445.776 584.49 451.736C590.661 457.697 595.558 464.776 598.899 472.568C600.775 476.944 602.138 481.496 602.975 486.141C605.307 473.19 611.717 461.15 621.462 451.736C631.159 442.369 643.54 436.2 656.854 433.924C652.119 433.114 647.478 431.81 643.015 430.024C634.957 426.8 627.633 422.073 621.463 416.112C615.292 410.152 610.395 403.073 607.054 395.28C603.945 388.03 602.24 380.293 602.018 372.456L602 371.697C601.982 370.594 602.878 369.713 603.961 369.713H732.895C733.977 369.713 734.872 370.594 734.854 371.697C734.724 379.793 733.01 387.796 729.801 395.28C726.459 403.073 721.563 410.152 715.393 416.112C709.222 422.073 701.898 426.8 693.84 430.024C689.376 431.811 684.734 433.114 679.999 433.924C693.313 436.2 705.694 442.369 715.392 451.736C727.419 463.355 734.366 478.975 734.837 495.369L734.854 496.15C734.855 496.156 734.853 496.162 734.854 496.167H863.797C864.88 496.167 865.775 497.048 865.757 498.151C865.626 506.248 863.912 514.25 860.703 521.734C857.362 529.527 852.465 536.606 846.295 542.566C840.124 548.527 832.8 553.253 824.742 556.478C816.685 559.702 808.05 561.361 799.33 561.361C790.61 561.361 781.975 559.702 773.917 556.478C765.859 553.253 758.536 548.527 752.365 542.566C746.195 536.606 741.298 529.527 737.956 521.734C734.847 514.484 733.142 506.747 732.92 498.91L732.902 498.151C732.902 498.146 732.902 498.14 732.902 498.135C732.899 498.135 732.896 498.136 732.894 498.136H603.96C603.602 498.136 603.266 498.038 602.976 497.869C602.685 498.037 602.35 498.136 601.992 498.136H473.059C473.055 498.136 473.051 498.135 473.048 498.135C473.048 498.139 473.049 498.144 473.049 498.148C472.85 510.506 468.965 522.552 461.853 532.834C454.549 543.393 444.17 551.619 432.034 556.475C419.899 561.33 406.547 562.6 393.667 560.125C380.787 557.65 368.95 551.539 359.657 542.562C350.364 533.585 344.031 522.142 341.465 509.681C338.899 497.218 340.215 484.301 345.248 472.564C350.281 460.828 358.801 450.802 369.726 443.751C377.407 438.793 386.036 435.461 395.048 433.92C394.588 433.841 394.129 433.76 393.67 433.672C380.789 431.197 368.952 425.087 359.659 416.11C350.366 407.133 344.033 395.69 341.467 383.229C340.68 379.406 340.258 375.54 340.197 371.679C340.194 371.679 340.19 371.68 340.187 371.68H211.253C211.25 371.68 211.246 371.679 211.243 371.679C211.115 379.781 209.402 387.79 206.19 395.28C202.849 403.073 197.952 410.152 191.781 416.112C185.611 422.073 178.287 426.8 170.229 430.024C162.722 433.028 154.712 434.673 146.601 434.884L145.815 434.9C144.714 434.916 143.832 434.022 143.832 432.938V308.443C143.828 308.443 143.823 308.444 143.818 308.444C135.439 308.323 127.154 306.669 119.404 303.568C111.347 300.344 104.023 295.618 97.8525 289.657C91.6821 283.697 86.7847 276.618 83.4434 268.825C81.5666 264.448 80.2015 259.894 79.3652 255.248C77.7838 264.036 74.3197 272.45 69.1455 279.931C61.8415 290.49 51.4625 298.716 39.3271 303.571C31.5374 306.688 23.2462 308.324 14.9004 308.443C14.9004 308.448 14.9014 308.452 14.9014 308.456L14.9004 369.713H78.3828C79.4659 369.713 80.3606 370.595 80.3428 371.698C80.1435 384.056 76.2588 396.101 69.1465 406.384C61.8425 416.943 51.4635 425.169 39.3281 430.024C34.8529 431.815 30.2117 433.116 25.4902 433.923C38.8029 436.2 51.1833 442.37 60.8799 451.736C73.1013 463.542 80.0764 479.48 80.3418 496.163H209.292C209.42 488.061 211.133 480.054 214.345 472.564C217.686 464.772 222.583 457.693 228.754 451.732C234.924 445.772 242.248 441.045 250.306 437.821C258.056 434.72 266.34 433.067 274.72 432.945C275.822 432.929 276.703 433.823 276.703 434.906V559.389C276.703 560.404 275.929 561.254 274.924 561.343L274.72 561.351C266.34 561.229 258.056 559.576 250.306 556.475C242.248 553.25 234.924 548.523 228.754 542.562C222.583 536.602 217.686 529.523 214.345 521.73C212.469 517.355 211.103 512.803 210.267 508.158C209.43 512.803 208.066 517.355 206.19 521.73C202.849 529.523 197.952 536.602 191.781 542.562C185.611 548.523 178.287 553.251 170.229 556.475C162.172 559.699 153.536 561.357 144.816 561.357C136.097 561.357 127.462 559.699 119.404 556.475C111.347 553.25 104.022 548.523 97.8516 542.562C91.6811 536.602 86.7848 529.523 83.4434 521.73C81.5676 517.356 80.2037 512.804 79.3672 508.16C77.0352 521.111 70.6251 533.153 60.8799 542.566C48.6543 554.376 32.1617 561.103 14.9141 561.354C13.8131 561.369 12.9309 560.476 12.9307 559.393V434.898C8.92908 434.841 4.92247 434.436 0.960938 433.675C-11.9195 431.2 -23.7558 425.089 -33.0488 416.112C-42.3423 407.135 -48.6751 395.692 -51.2412 383.23C-53.8073 370.768 -52.4906 357.851 -47.458 346.114C-42.4254 334.378 -33.904 324.352 -22.9795 317.301C-15.2983 312.343 -6.67017 309.012 2.34082 307.471C1.88017 307.392 1.41949 307.31 0.959961 307.222C-11.9205 304.747 -23.7567 298.636 -33.0498 289.659C-42.3432 280.682 -48.676 269.239 -51.2422 256.777C-53.8083 244.315 -52.4915 231.398 -47.459 219.661C-42.4265 207.925 -33.9058 197.899 -22.9814 190.848C-12.3344 183.975 0.132582 180.228 12.916 180.042C14.0178 180.026 14.8992 180.919 14.8994 182.003V243.26H78.3906C78.5189 235.158 80.2318 227.149 83.4434 219.659C86.7848 211.867 91.682 204.788 97.8525 198.827C104.023 192.867 111.347 188.139 119.404 184.915C126.912 181.911 134.922 180.266 143.033 180.056L143.818 180.039C143.823 180.039 143.828 180.039 143.833 180.039V55.5488C143.833 55.192 143.93 54.8562 144.098 54.5664C143.929 54.2756 143.831 53.9384 143.831 53.5801V-7.67676H80.3486C79.9916 -7.67686 79.6563 -7.77449 79.3662 -7.94238C79.0757 -7.7742 78.7393 -7.67676 78.3818 -7.67676H14.8994V53.5801C14.8994 53.5823 14.8984 53.5847 14.8984 53.5869C32.1512 53.8339 48.6491 60.5622 60.8779 72.375C72.9055 83.9936 79.8529 99.6145 80.3232 116.009L80.3408 116.79C80.3583 117.893 79.4634 118.774 78.3799 118.774H-50.5537C-51.6371 118.774 -52.5312 117.893 -52.5137 116.79C-52.245 100.112 -45.2701 84.1779 -33.0518 72.375C-23.3575 63.0104 -10.9801 56.8424 2.3291 54.5645C-6.67811 53.0225 -15.3033 49.6922 -22.9814 44.7363C-33.9058 37.685 -42.4255 27.6583 -47.458 15.9219C-52.4906 4.18505 -53.8083 -8.73224 -51.2422 -21.1943C-48.676 -33.6562 -42.3432 -45.0987 -33.0498 -54.0762C-23.7567 -63.0533 -11.9196 -69.1626 0.960938 -71.6377C13.8413 -74.1126 27.1931 -72.8428 39.3281 -67.9873C51.4634 -63.1316 61.8415 -54.906 69.1455 -44.3467C74.3185 -36.868 77.7839 -28.4565 79.3662 -19.6709C80.9482 -28.4565 84.4121 -36.868 89.585 -44.3467C96.889 -54.9062 107.268 -63.1315 119.403 -67.9873C131.538 -72.8428 144.89 -74.1126 157.771 -71.6377C170.651 -69.1627 182.487 -63.0531 191.78 -54.0762C201.074 -45.0988 207.406 -33.6561 209.973 -21.1943C212.539 -8.73223 211.222 4.18504 206.189 15.9219C201.157 27.6584 192.636 37.685 181.712 44.7363C174.033 49.6928 165.407 53.0219 156.398 54.5635C169.709 56.8408 182.087 63.0097 191.782 72.375C201.525 81.7869 207.935 93.8253 210.269 106.773C211.105 102.131 212.47 97.5812 214.345 93.208C217.686 85.4154 222.583 78.3367 228.754 72.376C234.924 66.4153 242.248 61.688 250.306 58.4639C257.813 55.4598 265.823 53.8151 273.935 53.6045L274.72 53.5879C274.724 53.5878 274.73 53.5879 274.734 53.5879V-70.9023C274.734 -71.9857 275.616 -72.88 276.718 -72.8643C285.097 -72.7425 293.381 -71.089 301.131 -67.9883C309.189 -64.7642 316.513 -60.0367 322.684 -54.0762C328.854 -48.1155 333.75 -41.0366 337.092 -33.2441C338.968 -28.8685 340.333 -24.3157 341.17 -19.6709C342.006 -24.3157 343.372 -28.8685 345.248 -33.2441C348.589 -41.0367 353.487 -48.1155 359.657 -54.0762C365.828 -60.0367 373.151 -64.7642 381.209 -67.9883C389.267 -71.2123 397.902 -72.8711 406.622 -72.8711C415.341 -72.871 423.977 -71.2122 432.034 -67.9883C440.092 -64.7641 447.416 -60.0368 453.587 -54.0762C459.757 -48.1154 464.654 -41.0367 467.995 -33.2441C469.873 -28.8636 471.238 -24.3054 472.074 -19.6553C472.167 -20.1688 472.264 -20.6822 472.369 -21.1943C474.935 -33.6562 481.268 -45.0987 490.562 -54.0762C499.855 -63.0532 511.691 -69.1636 524.571 -71.6387C537.452 -74.1136 550.803 -72.8437 562.938 -67.9883C575.074 -63.1325 585.453 -54.9071 592.757 -44.3477C597.93 -36.8682 601.394 -28.4555 602.976 -19.6689C603.812 -24.3144 605.177 -28.8679 607.054 -33.2441C610.395 -41.0366 615.291 -48.1155 621.462 -54.0762C627.632 -60.0368 634.957 -64.7642 643.015 -67.9883C651.072 -71.2122 659.707 -72.8711 668.427 -72.8711ZM734.871 498.136C734.999 505.969 736.659 513.713 739.766 520.958C743.003 528.507 747.749 535.369 753.733 541.15C759.718 546.931 766.825 551.519 774.648 554.649C782.472 557.78 790.86 559.393 799.33 559.393C807.801 559.393 816.188 557.78 824.012 554.649C831.835 551.519 838.942 546.931 844.927 541.15C850.911 535.369 855.658 528.508 858.895 520.959C862.001 513.714 863.66 505.969 863.788 498.136H734.871ZM80.3584 498.132C80.4868 505.965 82.1451 513.71 85.252 520.955C88.4889 528.504 93.2351 535.365 99.2197 541.146C105.204 546.928 112.311 551.516 120.135 554.646C127.959 557.777 136.346 559.389 144.816 559.389C153.287 559.389 161.674 557.777 169.498 554.646C177.322 551.516 184.428 546.928 190.413 541.146C196.398 535.365 201.144 528.504 204.381 520.955C207.488 513.71 209.147 505.965 209.275 498.132H80.3584ZM405.638 434.915C393.224 435.098 381.123 438.737 370.793 445.404C360.191 452.247 351.933 461.971 347.058 473.34C342.183 484.709 340.908 497.217 343.393 509.284C345.877 521.351 352.012 532.44 361.025 541.146C370.039 549.853 381.528 555.787 394.039 558.191C406.551 560.595 419.52 559.361 431.304 554.646C443.087 549.931 453.154 541.949 460.233 531.714C467.124 521.752 470.885 510.09 471.081 498.132H407.606C406.519 498.132 405.638 497.25 405.638 496.163V434.915ZM14.8994 559.384C31.6514 559.137 47.6564 552.602 59.5117 541.15C71.5979 529.475 78.3818 513.647 78.3818 497.151C78.3818 480.655 71.598 464.828 59.5117 453.152C47.6564 441.7 31.6515 435.164 14.8994 434.917V559.384ZM274.734 434.915C266.599 435.035 258.558 436.64 251.037 439.649C243.214 442.78 236.107 447.367 230.122 453.148C224.138 458.93 219.391 465.791 216.154 473.34C212.918 480.889 211.252 488.979 211.252 497.147C211.252 505.316 212.917 513.406 216.154 520.955C219.391 528.504 224.137 535.365 230.122 541.146C236.107 546.928 243.213 551.516 251.037 554.646C258.558 557.656 266.599 559.262 274.734 559.382V434.915ZM537.525 434.91C529.055 434.91 520.668 436.522 512.844 439.652C505.02 442.783 497.913 447.371 491.929 453.152C485.944 458.934 481.198 465.795 477.961 473.344C474.854 480.589 473.195 488.333 473.066 496.167H601.984C601.856 488.333 600.197 480.589 597.09 473.344C593.853 465.795 589.107 458.934 583.122 453.152C577.137 447.371 570.031 442.783 562.207 439.652C554.383 436.522 545.996 434.91 537.525 434.91ZM668.427 434.91C651.318 434.91 634.917 441.476 622.83 453.152C610.984 464.595 604.232 480.027 603.968 496.167H732.886C732.622 480.027 725.869 464.595 714.023 453.152C701.936 441.476 685.535 434.91 668.427 434.91ZM472.073 381.7C470.491 390.487 467.028 398.901 461.854 406.381C454.551 416.94 444.172 425.166 432.037 430.021C424.246 433.139 415.953 434.774 407.605 434.894C407.605 434.898 407.606 434.902 407.606 434.906V496.163H471.099C471.099 496.159 471.099 496.155 471.099 496.151C471.229 488.055 472.943 480.053 476.152 472.568C479.494 464.776 484.39 457.697 490.561 451.736C496.731 445.776 504.056 441.048 512.113 437.824C516.579 436.037 521.223 434.732 525.96 433.923C521.223 433.113 516.579 431.808 512.113 430.021C504.056 426.797 496.732 422.071 490.562 416.11C484.391 410.15 479.494 403.071 476.152 395.278C474.275 390.901 472.91 386.347 472.073 381.7ZM603.969 371.682C604.097 379.515 605.756 387.259 608.863 394.505C612.1 402.054 616.846 408.915 622.831 414.696C628.816 420.477 635.922 425.066 643.746 428.196C651.57 431.327 659.957 432.938 668.428 432.938C676.898 432.938 685.285 431.327 693.109 428.196C700.933 425.066 708.04 420.477 714.024 414.696C720.009 408.915 724.755 402.054 727.992 394.505C731.099 387.259 732.758 379.515 732.887 371.682H603.969ZM12.9326 308.465C0.518774 308.648 -11.5826 312.287 -21.9121 318.954C-32.5142 325.797 -40.7733 335.521 -45.6484 346.89C-50.5232 358.258 -51.7982 370.767 -49.3135 382.834C-46.8287 394.901 -40.6939 405.99 -31.6807 414.696C-22.667 423.403 -11.1786 429.337 1.33301 431.741C13.8447 434.145 26.8139 432.911 38.5977 428.196C50.3811 423.481 60.4478 415.499 67.5273 405.264C74.4177 395.302 78.1792 383.64 78.375 371.682H14.9004C13.8134 371.681 12.9318 370.8 12.9316 369.713L12.9326 308.465ZM405.64 308.461C393.226 308.644 381.124 312.285 370.795 318.952C360.193 325.795 351.935 335.519 347.06 346.888C342.185 358.256 340.91 370.765 343.395 382.831C345.879 394.898 352.014 405.988 361.027 414.694C370.041 423.401 381.529 429.335 394.041 431.739C406.553 434.143 419.522 432.908 431.306 428.193C443.089 423.478 453.156 415.496 460.235 405.261C467.125 395.299 470.887 383.638 471.083 371.68H407.608C406.521 371.68 405.64 370.798 405.64 369.711V308.461ZM145.801 432.932C153.936 432.812 161.977 431.205 169.498 428.196C177.322 425.066 184.428 420.477 190.413 414.696C196.398 408.915 201.144 402.054 204.381 394.505C207.618 386.956 209.283 378.866 209.283 370.697C209.283 362.529 207.618 354.439 204.381 346.89C201.144 339.341 196.398 332.479 190.413 326.698C184.428 320.917 177.322 316.33 169.498 313.199C161.977 310.19 153.936 308.584 145.801 308.464V432.932ZM800.313 432.932C808.449 432.812 816.49 431.206 824.011 428.196C831.835 425.066 838.941 420.477 844.926 414.696C850.91 408.915 855.657 402.054 858.894 394.505C862.13 386.956 863.796 378.866 863.796 370.697C863.796 362.529 862.13 354.438 858.894 346.89C855.657 339.341 850.91 332.479 844.926 326.698C838.941 320.917 831.834 316.33 824.011 313.199C816.49 310.19 808.449 308.585 800.313 308.465V432.932ZM536.542 308.461C528.407 308.581 520.366 310.187 512.845 313.196C505.021 316.327 497.914 320.915 491.93 326.696C485.945 332.477 481.199 339.339 477.962 346.888C474.725 354.437 473.06 362.527 473.06 370.695C473.06 378.864 474.725 386.954 477.962 394.503C481.199 402.052 485.945 408.913 491.93 414.694C497.914 420.475 505.021 425.063 512.845 428.193C520.365 431.203 528.407 432.809 536.542 432.929V308.461ZM275.72 308.454C267.249 308.454 258.862 310.066 251.038 313.196C243.214 316.327 236.108 320.915 230.123 326.696C224.138 332.478 219.392 339.339 216.155 346.888C213.048 354.133 211.389 361.877 211.261 369.711H340.179C340.05 361.877 338.391 354.133 335.284 346.888C332.047 339.339 327.301 332.477 321.316 326.696C315.332 320.915 308.225 316.327 300.401 313.196C292.578 310.066 284.19 308.454 275.72 308.454ZM340.187 245.227H276.704V306.483C276.704 306.486 276.703 306.489 276.703 306.492C285.088 306.612 293.378 308.265 301.133 311.368C309.19 314.592 316.514 319.32 322.685 325.28C328.855 331.241 333.752 338.32 337.094 346.112C338.971 350.49 340.335 355.046 341.171 359.693C342.005 355.058 343.368 350.503 345.251 346.112C350.284 334.376 358.803 324.349 369.728 317.298C377.407 312.341 386.033 309.01 395.041 307.469C390.322 306.661 385.682 305.361 381.209 303.571C369.074 298.716 358.696 290.49 351.392 279.931C344.501 269.969 340.639 258.354 340.224 246.402L340.194 245.245C340.194 245.239 340.194 245.232 340.194 245.226C340.192 245.226 340.189 245.227 340.187 245.227ZM210.268 128.807C207.934 141.755 201.525 153.793 191.782 163.205C179.748 174.83 163.578 181.531 146.624 181.977L145.816 181.993C145.811 181.993 145.806 181.992 145.801 181.992C145.801 181.995 145.802 181.998 145.802 182.001V306.483C145.802 306.487 145.801 306.491 145.801 306.495C145.806 306.495 145.811 306.495 145.815 306.495C154.195 306.617 162.48 308.27 170.229 311.371C178.287 314.595 185.611 319.322 191.781 325.282C197.952 331.243 202.849 338.322 206.19 346.114C208.067 350.491 209.431 355.044 210.268 359.689C211.104 355.043 212.47 350.489 214.347 346.112C217.688 338.32 222.584 331.241 228.755 325.28C234.925 319.32 242.25 314.592 250.308 311.368C254.77 309.583 259.408 308.277 264.141 307.468C255.131 305.926 246.504 302.596 238.823 297.639C227.899 290.587 219.379 280.562 214.347 268.825C209.314 257.088 207.996 244.171 210.562 231.709C213.129 219.247 219.462 207.805 228.755 198.827C238.048 189.85 249.885 183.74 262.766 181.265C263.223 181.177 263.681 181.095 264.139 181.017C259.407 180.207 254.767 178.902 250.306 177.117C242.248 173.893 234.924 169.167 228.754 163.206C222.583 157.245 217.686 150.167 214.345 142.374C212.469 138 211.104 133.45 210.268 128.807ZM12.9307 182.012C0.516851 182.195 -11.5846 185.834 -21.9141 192.501C-32.5159 199.344 -40.7744 209.068 -45.6494 220.437C-50.5241 231.805 -51.7991 244.314 -49.3145 256.381C-46.8296 268.448 -40.6949 279.536 -31.6816 288.243C-22.668 296.95 -11.1796 302.884 1.33203 305.288C13.8437 307.692 26.8129 306.458 38.5967 301.743C50.3801 297.028 60.4468 289.045 67.5264 278.811C74.4167 268.849 78.1781 257.187 78.374 245.229H14.8994C13.8124 245.228 12.9309 244.347 12.9307 243.26V182.012ZM407.606 243.26C407.606 244.347 406.725 245.228 405.638 245.229H342.163C342.359 257.187 346.12 268.849 353.011 278.811C360.09 289.045 370.157 297.028 381.94 301.743C393.724 306.458 406.693 307.692 419.205 305.288C431.717 302.884 443.205 296.95 452.219 288.243C461.232 279.536 467.367 268.448 469.852 256.381C472.336 244.314 471.061 231.805 466.187 220.437C461.312 209.068 453.053 199.344 442.451 192.501C432.122 185.834 420.02 182.195 407.606 182.012V243.26ZM798.345 182.008C785.931 182.191 773.83 185.832 763.5 192.499C752.898 199.342 744.64 209.065 739.765 220.435C734.89 231.803 733.615 244.311 736.1 256.378C738.584 268.445 744.719 279.534 753.732 288.241C762.746 296.948 774.234 302.882 786.746 305.286C799.258 307.69 812.227 306.455 824.011 301.74C835.794 297.025 845.861 289.043 852.94 278.808C859.83 268.846 863.591 257.185 863.787 245.227H800.313C799.226 245.227 798.345 244.345 798.345 243.258V182.008ZM681.011 183.2C668.499 180.796 655.53 182.031 643.746 186.746C631.963 191.461 621.896 199.444 614.816 209.679C607.926 219.64 604.166 231.301 603.97 243.26H667.443C668.531 243.26 669.412 244.141 669.412 245.229V306.479C681.826 306.296 693.927 302.655 704.257 295.987C714.859 289.144 723.117 279.421 727.992 268.052C732.867 256.683 734.142 244.175 731.657 232.108C729.172 220.042 723.038 208.952 714.024 200.245C705.011 191.538 693.522 185.604 681.011 183.2ZM143.833 182.008C135.698 182.128 127.656 183.734 120.136 186.743C112.312 189.874 105.205 194.462 99.2207 200.243C93.236 206.024 88.4899 212.886 85.2529 220.435C82.016 227.983 80.3506 236.074 80.3506 244.242C80.3506 252.411 82.0161 260.501 85.2529 268.05C88.4898 275.599 93.2362 282.46 99.2207 288.241C105.205 294.022 112.312 298.61 120.136 301.74C127.656 304.749 135.698 306.356 143.833 306.476V182.008ZM300.401 186.743C288.618 182.028 275.648 180.794 263.137 183.198C250.625 185.602 239.137 191.536 230.123 200.243C221.11 208.95 214.975 220.039 212.49 232.105C210.006 244.172 211.28 256.681 216.155 268.05C221.03 279.419 229.289 289.142 239.891 295.985C250.22 302.653 262.322 306.292 274.735 306.475V245.227C274.736 244.139 275.617 243.258 276.704 243.258H340.179C339.983 231.299 336.221 219.637 329.331 209.676C322.251 199.441 312.185 191.458 300.401 186.743ZM471.089 -7.67676H342.155C342.152 -7.67676 342.149 -7.67772 342.146 -7.67773C342.017 0.424343 340.303 8.43202 337.092 15.9219C333.75 23.7145 328.854 30.7931 322.684 36.7539C316.513 42.7146 309.189 47.4409 301.131 50.665C293.381 53.7658 285.097 55.4192 276.718 55.541C276.713 55.5411 276.707 55.54 276.702 55.54C276.702 55.5433 276.703 55.5465 276.703 55.5498V180.032C276.703 180.035 276.702 180.039 276.702 180.042C285.049 180.161 293.342 181.798 301.133 184.915C313.268 189.771 323.646 197.996 330.95 208.556C337.84 218.517 341.702 230.133 342.118 242.084L342.147 243.241C342.148 243.247 342.146 243.254 342.146 243.26H405.638V181.991C401.637 181.934 397.631 181.529 393.67 180.768C380.789 178.293 368.952 172.182 359.659 163.205C350.366 154.228 344.033 142.785 341.467 130.323C338.901 117.861 340.218 104.944 345.251 93.207C350.284 81.4707 358.803 71.4448 369.728 64.3936C380.375 57.5214 392.842 53.7737 405.625 53.5879C406.727 53.572 407.608 54.4655 407.608 55.5488V116.806H471.099C471.099 116.801 471.099 116.796 471.099 116.791C471.229 108.695 472.943 100.692 476.152 93.208C479.494 85.4155 484.39 78.3366 490.561 72.376C496.731 66.4154 504.056 61.688 512.113 58.4639C516.575 56.6785 521.215 55.3739 525.947 54.5645C516.937 53.023 508.31 49.6927 500.63 44.7354C489.705 37.684 481.185 27.6584 476.152 15.9219C472.926 8.3968 471.229 0.386659 471.102 -7.67773C471.097 -7.67771 471.093 -7.67676 471.089 -7.67676ZM537.525 182.001C529.055 182.001 520.668 183.613 512.844 186.743C505.02 189.874 497.913 194.462 491.929 200.243C485.944 206.024 481.198 212.886 477.961 220.435C474.854 227.68 473.195 235.424 473.066 243.258H601.984C601.856 235.424 600.197 227.68 597.09 220.435C593.853 212.886 589.107 206.024 583.122 200.243C577.137 194.462 570.031 189.874 562.207 186.743C554.383 183.613 545.996 182.001 537.525 182.001ZM602.977 118.509C602.686 118.677 602.35 118.775 601.992 118.775H473.059C473.056 118.775 473.053 118.774 473.051 118.774L473.052 118.791C472.853 131.149 468.967 143.194 461.854 153.477C454.551 164.036 444.173 172.261 432.037 177.117C427.56 178.908 422.917 180.209 418.194 181.017C427.207 182.558 435.837 185.889 443.519 190.848C454.443 197.899 462.963 207.925 467.995 219.661C469.877 224.051 471.239 228.607 472.073 233.241C472.91 228.593 474.275 224.038 476.152 219.659C479.494 211.867 484.39 204.788 490.561 198.827C496.731 192.867 504.056 188.139 512.113 184.915C520.171 181.691 528.806 180.032 537.525 180.032C546.245 180.032 554.881 181.691 562.938 184.915C570.996 188.139 578.32 192.866 584.49 198.827C590.661 204.788 595.558 211.867 598.899 219.659C600.777 224.037 602.141 228.593 602.978 233.24C604.559 224.452 608.023 216.039 613.197 208.559C620.501 197.999 630.88 189.774 643.016 184.918C650.806 181.801 659.097 180.164 667.443 180.044V118.774H603.961C603.603 118.774 603.267 118.677 602.977 118.509ZM733.878 128.804C733.044 133.435 731.682 137.986 729.801 142.373C724.768 154.11 716.249 164.136 705.324 171.188C697.642 176.146 689.012 179.476 680 181.017C680.461 181.095 680.922 181.179 681.383 181.268C694.263 183.743 706.1 189.852 715.393 198.829C724.686 207.807 731.019 219.249 733.585 231.711C733.689 232.219 733.785 232.727 733.877 233.236C734.711 228.603 736.073 224.048 737.955 219.659C742.988 207.923 751.508 197.896 762.433 190.845C770.113 185.888 778.74 182.558 787.75 181.017C783.017 180.207 778.378 178.903 773.916 177.117C765.858 173.893 758.535 169.167 752.364 163.206C746.194 157.245 741.297 150.167 737.955 142.374C736.079 137.999 734.714 133.448 733.878 128.804ZM405.64 55.5566C393.226 55.7396 381.124 59.3797 370.795 66.0469C360.193 72.89 351.935 82.6134 347.06 93.9824C342.185 105.351 340.91 117.86 343.395 129.927C345.879 141.994 352.014 153.082 361.027 161.789C370.041 170.496 381.529 176.43 394.041 178.834C406.553 181.238 419.522 180.004 431.306 175.289C443.089 170.574 453.156 162.592 460.235 152.356C467.126 142.395 470.887 130.733 471.083 118.774H407.608C406.521 118.774 405.64 117.893 405.64 116.806V55.5566ZM145.802 180.024C162.554 179.778 178.559 173.241 190.414 161.789C202.483 150.131 209.264 134.332 209.283 117.861V117.719C209.264 101.248 202.483 85.4494 190.414 73.791C178.559 62.3391 162.554 55.8043 145.802 55.5576V180.024ZM274.734 55.5566C266.599 55.6766 258.558 57.2828 251.037 60.292C243.213 63.4226 236.107 68.0108 230.122 73.792C224.137 79.5732 219.391 86.4345 216.154 93.9834C212.928 101.508 211.263 109.57 211.252 117.712C211.252 117.738 211.253 117.764 211.253 117.79C211.253 117.816 211.252 117.842 211.252 117.868C211.262 126.011 212.928 134.074 216.154 141.599C219.391 149.147 224.138 156.009 230.122 161.79C236.107 167.571 243.214 172.159 251.037 175.289C258.558 178.298 266.599 179.904 274.734 180.024V55.5566ZM681.011 56.7461C668.499 54.342 655.53 55.577 643.746 60.292C631.963 65.007 621.896 72.9896 614.816 83.2246C607.926 93.186 604.165 104.847 603.969 116.806H667.443C668.53 116.806 669.412 117.687 669.412 118.774V180.024C681.826 179.841 693.927 176.2 704.257 169.533C714.859 162.69 723.117 152.967 727.992 141.598C732.867 130.229 734.142 117.721 731.657 105.654C729.172 93.5874 723.038 82.4979 714.024 73.791C705.011 65.0839 693.522 59.1502 681.011 56.7461ZM798.345 55.5566C790.209 55.6766 782.168 57.2828 774.647 60.292C766.824 63.4225 759.717 68.0109 753.732 73.792C747.748 79.5731 743.002 86.4345 739.765 93.9834C736.528 101.532 734.862 109.622 734.862 117.791C734.862 125.96 736.528 134.05 739.765 141.599C743.002 149.147 747.748 156.009 753.732 161.79C759.717 167.571 766.824 172.159 774.647 175.289C782.168 178.298 790.209 179.904 798.345 180.024V55.5566ZM537.525 55.5498C529.055 55.5498 520.668 57.1615 512.844 60.292C505.02 63.4225 497.913 68.0109 491.929 73.792C485.944 79.5731 481.198 86.4345 477.961 93.9834C474.854 101.229 473.195 108.973 473.066 116.807H601.984C601.856 108.973 600.197 101.229 597.09 93.9834C593.853 86.4345 589.107 79.5732 583.122 73.792C577.137 68.0108 570.031 63.4225 562.207 60.292C554.383 57.1614 545.996 55.5498 537.525 55.5498ZM13.9131 55.5488C-3.19512 55.5489 -19.5963 62.1148 -31.6836 73.791C-43.5292 85.2338 -50.2807 100.666 -50.5449 116.806H78.3721C78.1078 100.666 71.3554 85.2338 59.5098 73.791C47.4224 62.1149 31.0212 55.5488 13.9131 55.5488ZM733.878 -7.94336C733.587 -7.77484 733.251 -7.67679 732.894 -7.67676H603.96C603.602 -7.6768 603.266 -7.77483 602.976 -7.94336C602.685 -7.77524 602.35 -7.67683 601.993 -7.67676H538.511V53.5801C538.511 53.5829 538.51 53.586 538.51 53.5889C546.894 53.7089 555.184 55.3611 562.938 58.4639C570.996 61.688 578.32 66.4153 584.49 72.376C590.661 78.3367 595.558 85.4155 598.899 93.208C600.776 97.5851 602.14 102.14 602.977 106.786C604.558 97.9985 608.023 89.5848 613.197 82.1045C620.501 71.5451 630.879 63.3196 643.015 58.4639C655.15 53.6083 668.501 52.3386 681.382 54.8135C694.263 57.2885 706.099 63.3978 715.393 72.375C724.686 81.3524 731.019 92.795 733.585 105.257C733.69 105.765 733.785 106.274 733.877 106.783C734.713 102.138 736.079 97.5842 737.955 93.208C741.297 85.4155 746.194 78.3367 752.364 72.376C758.535 66.4154 765.858 61.688 773.916 58.4639C781.424 55.4598 789.433 53.8151 797.545 53.6045L798.33 53.5879C798.335 53.5878 798.341 53.5879 798.346 53.5879V-7.67676H734.863C734.505 -7.67676 734.169 -7.77456 733.878 -7.94336ZM38.5967 -66.1592C26.8129 -70.8741 13.8438 -72.1092 1.33203 -69.7051C-11.1795 -67.3009 -22.668 -61.3672 -31.6816 -52.6602C-40.6949 -43.9533 -46.8297 -32.8638 -49.3145 -20.7969C-51.7991 -8.73038 -50.5241 3.77782 -45.6494 15.1465C-40.7744 26.5155 -32.5159 36.2388 -21.9141 43.082C-11.5846 49.7492 0.516923 53.3902 12.9307 53.5732V-7.67676C12.9309 -8.76367 13.8125 -9.64519 14.8994 -9.64551H78.374C78.1781 -21.6041 74.4167 -33.266 67.5264 -43.2275C60.4468 -53.4623 50.38 -61.4443 38.5967 -66.1592ZM157.398 -69.7051C144.887 -72.1091 131.918 -70.8742 120.134 -66.1592C108.35 -61.4442 98.2836 -53.4615 91.2041 -43.2266C84.314 -33.2652 80.5534 -21.6038 80.3574 -9.64551H143.831C144.918 -9.64551 145.8 -8.76386 145.8 -7.67676V53.5732C158.214 53.3903 170.315 49.7493 180.645 43.082C191.247 36.2388 199.505 26.5157 204.38 15.1465C209.255 3.77771 210.53 -8.73023 208.045 -20.7969C205.56 -32.8638 199.425 -43.9533 190.412 -52.6602C181.398 -61.3671 169.91 -67.301 157.398 -69.7051ZM276.703 53.5723C284.838 53.4523 292.88 51.8461 300.4 48.8369C308.224 45.7064 315.331 41.119 321.315 35.3379C327.3 29.5567 332.046 22.6954 335.283 15.1465C338.52 7.59763 340.186 -0.492442 340.186 -8.66113C340.186 -16.8298 338.52 -24.9199 335.283 -32.4688C332.046 -40.0176 327.3 -46.879 321.315 -52.6602C315.331 -58.4412 308.224 -63.0296 300.4 -66.1602C292.88 -69.1693 284.838 -70.7756 276.703 -70.8955V53.5723ZM562.208 -66.1602C550.424 -70.8752 537.455 -72.1091 524.943 -69.7051C512.432 -67.301 500.943 -61.3673 491.93 -52.6602C482.916 -43.9534 476.782 -32.8646 474.297 -20.7979C471.812 -8.73117 473.087 3.77766 477.962 15.1465C482.837 26.5156 491.095 36.2389 501.697 43.082C512.027 49.7493 524.128 53.3893 536.542 53.5723V-7.67676C536.542 -8.76397 537.424 -9.64551 538.511 -9.64551H601.984C601.789 -21.6041 598.028 -33.266 591.138 -43.2275C584.058 -53.4626 573.992 -61.4452 562.208 -66.1602ZM811.913 -69.7051C799.401 -72.1092 786.432 -70.8752 774.648 -66.1602C762.865 -61.4452 752.798 -53.4626 745.719 -43.2275C738.828 -33.2659 735.067 -21.6042 734.871 -9.64551H798.346C799.433 -9.6454 800.314 -8.7639 800.314 -7.67676V53.5723C812.728 53.3893 824.83 49.7493 835.159 43.082C845.761 36.2389 854.019 26.5156 858.895 15.1465C863.769 3.77768 865.044 -8.73119 862.56 -20.7979C860.075 -32.8646 853.94 -43.9534 844.927 -52.6602C835.913 -61.3674 824.425 -67.301 811.913 -69.7051ZM406.622 -70.9023C398.152 -70.9023 389.764 -69.2906 381.94 -66.1602C374.117 -63.0296 367.01 -58.4412 361.025 -52.6602C355.041 -46.879 350.295 -40.0176 347.058 -32.4688C343.951 -25.2232 342.291 -17.4792 342.163 -9.64551H471.08C470.952 -17.4791 469.293 -25.2232 466.187 -32.4688C462.95 -40.0177 458.203 -46.879 452.219 -52.6602C446.234 -58.4413 439.127 -63.0296 431.304 -66.1602C423.48 -69.2907 415.092 -70.9023 406.622 -70.9023ZM668.427 -70.9023C659.956 -70.9023 651.569 -69.2907 643.745 -66.1602C635.921 -63.0296 628.815 -58.4413 622.83 -52.6602C616.845 -46.879 612.099 -40.0176 608.862 -32.4688C605.755 -25.2232 604.096 -17.4791 603.968 -9.64551H732.886C732.757 -17.4792 731.098 -25.2232 727.991 -32.4688C724.754 -40.0177 720.008 -46.8789 714.023 -52.6602C708.039 -58.4414 700.932 -63.0296 693.108 -66.1602C685.284 -69.2907 676.897 -70.9023 668.427 -70.9023Z" fill="url(#paint0_linear_10446_37495)"/>
<defs>
<linearGradient id="paint0_linear_10446_37495" x1="-52.5535" y1="245.242" x2="883.484" y2="254.283" gradientUnits="userSpaceOnUse">
<stop stop-color="#76521C" stop-opacity="0"/>
<stop offset="0.6875" stop-color="#76521C"/>
</linearGradient>
</defs>
</svg>
